# Blender v2.77 (sub 0) OBJ File: ''
# www.blender.org
o Cube.003
v 0.519606 -0.519606 -0.259803
v 0.519606 -0.519606 0.259803
v -0.000000 -0.519606 0.259803
v 0.000000 -0.519606 -0.259803
v 0.519606 0.000000 -0.259803
v 0.519606 0.000000 0.259803
v -0.000000 0.000000 0.259803
v 0.000000 0.000000 -0.259803
vn 0.000000 -1.000000 0.000000
vn 0.000000 1.000000 0.000000
vn 1.000000 -0.000000 0.000000
vn 0.000000 -0.000000 1.000000
vn -1.000000 -0.000000 -0.000000
vn 0.000000 0.000000 -1.000000
s off
f 1//1 3//1 4//1
f 5//2 7//2 6//2
f 5//3 2//3 1//3
f 6//4 3//4 2//4
f 7//5 4//5 3//5
f 1//6 8//6 5//6
f 1//1 2//1 3//1
f 5//2 8//2 7//2
f 5//3 6//3 2//3
f 6//4 7//4 3//4
f 7//5 8//5 4//5
f 1//6 4//6 8//6
o Cube.002
v 0.519606 0.000000 -0.259803
v 0.519606 0.000000 0.259803
v -0.000000 0.000000 0.259803
v 0.000000 0.000000 -0.259803
v 0.519606 0.519606 -0.259803
v 0.519606 0.519606 0.259803
v -0.000000 0.519606 0.259803
v 0.000000 0.519606 -0.259803
vn 0.000000 -1.000000 0.000000
vn 0.000000 1.000000 0.000000
vn 1.000000 -0.000000 0.000000
vn 0.000000 -0.000000 1.000000
vn -1.000000 -0.000000 -0.000000
vn 0.000000 0.000000 -1.000000
s off
f 9//7 11//7 12//7
f 13//8 15//8 14//8
f 13//9 10//9 9//9
f 14//10 11//10 10//10
f 15//11 12//11 11//11
f 9//12 16//12 13//12
f 9//7 10//7 11//7
f 13//8 16//8 15//8
f 13//9 14//9 10//9
f 14//10 15//10 11//10
f 15//11 16//11 12//11
f 9//12 12//12 16//12
o Cube.001
v 0.000000 0.000000 -0.259803
v 0.000000 0.000000 0.259803
v -0.519606 0.000000 0.259803
v -0.519606 0.000000 -0.259803
v 0.000000 0.519606 -0.259803
v -0.000000 0.519606 0.259803
v -0.519606 0.519606 0.259803
v -0.519606 0.519606 -0.259803
vn 0.000000 -1.000000 0.000000
vn 0.000000 1.000000 0.000000
vn 1.000000 -0.000000 0.000000
vn 0.000000 -0.000000 1.000000
vn -1.000000 -0.000000 -0.000000
vn 0.000000 0.000000 -1.000000
s off
f 17//13 19//13 20//13
f 21//14 23//14 22//14
f 21//15 18//15 17//15
f 22//16 19//16 18//16
f 23//17 20//17 19//17
f 17//18 24//18 21//18
f 17//13 18//13 19//13
f 21//14 24//14 23//14
f 21//15 22//15 18//15
f 22//16 23//16 19//16
f 23//17 24//17 20//17
f 17//18 20//18 24//18
o Cube
v 0.000000 -0.519606 -0.259803
v 0.000000 -0.519606 0.259803
v -0.519606 -0.519606 0.259803
v -0.519606 -0.519606 -0.259803
v 0.000000 0.000000 -0.259803
v -0.000000 0.000000 0.259803
v -0.519606 0.000000 0.259803
v -0.519606 0.000000 -0.259803
vn 0.000000 -1.000000 0.000000
vn 0.000000 1.000000 0.000000
vn 1.000000 -0.000000 0.000000
vn 0.000000 -0.000000 1.000000
vn -1.000000 -0.000000 -0.000000
vn 0.000000 0.000000 -1.000000
s off
f 25//19 27//19 28//19
f 29//20 31//20 30//20
f 29//21 26//21 25//21
f 30//22 27//22 26//22
f 31//23 28//23 27//23
f 25//24 32//24 29//24
f 25//19 26//19 27//19
f 29//20 32//20 31//20
f 29//21 30//21 26//21
f 30//22 31//22 27//22
f 31//23 32//23 28//23
f 25//24 28//24 32//24
