# Blender v2.77 (sub 0) OBJ File: 'mapLayout9.blend'
# www.blender.org
o Cube.019_Cube.021
v -2.652384 -0.063119 5.971471
v -2.652384 0.225001 5.971471
v -2.652384 -0.063119 4.647173
v -2.652384 0.225001 4.647173
v 1.532923 -0.063119 5.971471
v 1.532923 0.225001 5.971471
v 1.532923 -0.063119 4.647173
v 1.532923 0.225001 4.647173
vt 0.333333 0.000000
vt 0.666667 0.333333
vt 0.333333 0.333333
vt 0.000000 0.333333
vt 0.333333 0.666667
vt 0.000000 0.666667
vt 0.000000 0.000000
vt 0.333333 0.333333
vt 0.666667 0.333333
vt 0.333333 0.666667
vt 0.333333 0.333333
vt 1.000000 0.333333
vt 0.666667 0.000000
vt 1.000000 0.000000
vt 0.333333 0.666667
vt 0.000000 1.000000
vt 0.000000 0.666667
vt 0.666667 0.000000
vt 0.333333 0.000000
vt 0.666667 0.666667
vt 0.666667 0.333333
vt 0.333333 1.000000
vn -1.000000 0.000000 0.000000
vn 0.000000 0.000000 -1.000000
vn 1.000000 0.000000 0.000000
vn 0.000000 0.000000 1.000000
vn 0.000000 -1.000000 0.000000
vn 0.000000 1.000000 0.000000
s off
f 4/1/1 1/2/1 2/3/1
f 8/4/2 3/5/2 4/6/2
f 6/7/3 7/8/3 8/4/3
f 2/9/4 5/10/4 6/11/4
f 3/12/5 5/13/5 1/14/5
f 8/15/6 2/16/6 6/17/6
f 4/1/1 3/18/1 1/2/1
f 8/4/2 7/8/2 3/5/2
f 6/7/3 5/19/3 7/8/3
f 2/9/4 1/20/4 5/10/4
f 3/12/5 7/21/5 5/13/5
f 8/15/6 4/22/6 2/16/6
o Cube.015_Cube.017
v -1.926421 0.064233 3.368398
v -1.926421 0.352353 3.368398
v -1.926421 0.064233 0.964152
v -1.926421 0.352353 0.964152
v 2.010108 0.064233 3.368398
v 2.010108 0.352353 3.368398
v 2.010108 0.064233 0.964152
v 2.010108 0.352353 0.964152
vt 0.333333 0.000000
vt 0.666667 0.333333
vt 0.333333 0.333333
vt 0.000000 0.333333
vt 0.333333 0.666667
vt 0.000000 0.666667
vt 0.000000 0.000000
vt 0.333333 0.333333
vt 0.666667 0.333333
vt 0.333333 0.666667
vt 0.333333 0.333333
vt 1.000000 0.333333
vt 0.666667 0.000000
vt 1.000000 0.000000
vt 0.333333 0.666667
vt 0.000000 1.000000
vt 0.000000 0.666667
vt 0.666667 0.000000
vt 0.333333 0.000000
vt 0.666667 0.666667
vt 0.666667 0.333333
vt 0.333333 1.000000
vn -1.000000 0.000000 0.000000
vn 0.000000 0.000000 -1.000000
vn 1.000000 0.000000 0.000000
vn 0.000000 0.000000 1.000000
vn 0.000000 -1.000000 0.000000
vn 0.000000 1.000000 0.000000
s off
f 12/23/7 9/24/7 10/25/7
f 16/26/8 11/27/8 12/28/8
f 14/29/9 15/30/9 16/26/9
f 10/31/10 13/32/10 14/33/10
f 11/34/11 13/35/11 9/36/11
f 16/37/12 10/38/12 14/39/12
f 12/23/7 11/40/7 9/24/7
f 16/26/8 15/30/8 11/27/8
f 14/29/9 13/41/9 15/30/9
f 10/31/10 9/42/10 13/32/10
f 11/34/11 15/43/11 13/35/11
f 16/37/12 12/44/12 10/38/12
o Cube.014_Cube.016
v -3.667485 0.031616 -0.536550
v -3.667485 0.631616 -0.536550
v -3.667485 0.031616 -2.260247
v -3.667485 0.631616 -2.260247
v 2.920617 0.031616 -0.536550
v 2.920617 0.631616 -0.536550
v 2.920617 0.031616 -2.260247
v 2.920617 0.631616 -2.260247
vt 0.333333 0.000000
vt 0.666667 0.333333
vt 0.333333 0.333333
vt 0.000000 0.333333
vt 0.333333 0.666667
vt 0.000000 0.666667
vt 0.000000 0.000000
vt 0.333333 0.333333
vt 0.666667 0.333333
vt 0.333333 0.666667
vt 0.333333 0.333333
vt 1.000000 0.333333
vt 0.666667 0.000000
vt 1.000000 0.000000
vt 0.333333 0.666667
vt 0.000000 1.000000
vt 0.000000 0.666667
vt 0.666667 0.000000
vt 0.333333 0.000000
vt 0.666667 0.666667
vt 0.666667 0.333333
vt 0.333333 1.000000
vn -1.000000 0.000000 0.000000
vn 0.000000 0.000000 -1.000000
vn 1.000000 0.000000 0.000000
vn 0.000000 0.000000 1.000000
vn 0.000000 -1.000000 0.000000
vn 0.000000 1.000000 0.000000
s off
f 20/45/13 17/46/13 18/47/13
f 24/48/14 19/49/14 20/50/14
f 22/51/15 23/52/15 24/48/15
f 18/53/16 21/54/16 22/55/16
f 19/56/17 21/57/17 17/58/17
f 24/59/18 18/60/18 22/61/18
f 20/45/13 19/62/13 17/46/13
f 24/48/14 23/52/14 19/49/14
f 22/51/15 21/63/15 23/52/15
f 18/53/16 17/64/16 21/54/16
f 19/56/17 23/65/17 21/57/17
f 24/59/18 20/66/18 18/60/18
o Cube.013_Cube.015
v -2.929804 0.050157 -3.843758
v -2.929804 0.338277 -3.843758
v -2.929804 0.050157 -6.614464
v -2.929804 0.338277 -6.614464
v 1.768960 0.050157 -3.843758
v 1.768960 0.338277 -3.843758
v 1.768960 0.050157 -6.614464
v 1.768960 0.338277 -6.614464
vt 0.333333 0.000000
vt 0.666667 0.333333
vt 0.333333 0.333333
vt 0.000000 0.333333
vt 0.333333 0.666667
vt 0.000000 0.666667
vt 0.000000 0.000000
vt 0.333333 0.333333
vt 0.666667 0.333333
vt 0.333333 0.666667
vt 0.333333 0.333333
vt 1.000000 0.333333
vt 0.666667 0.000000
vt 1.000000 0.000000
vt 0.333333 0.666667
vt 0.000000 1.000000
vt 0.000000 0.666667
vt 0.666667 0.000000
vt 0.333333 0.000000
vt 0.666667 0.666667
vt 0.666667 0.333333
vt 0.333333 1.000000
vn -1.000000 0.000000 0.000000
vn 0.000000 0.000000 -1.000000
vn 1.000000 0.000000 0.000000
vn 0.000000 0.000000 1.000000
vn 0.000000 -1.000000 0.000000
vn 0.000000 1.000000 0.000000
s off
f 28/67/19 25/68/19 26/69/19
f 32/70/20 27/71/20 28/72/20
f 30/73/21 31/74/21 32/70/21
f 26/75/22 29/76/22 30/77/22
f 27/78/23 29/79/23 25/80/23
f 32/81/24 26/82/24 30/83/24
f 28/67/19 27/84/19 25/68/19
f 32/70/20 31/74/20 27/71/20
f 30/73/21 29/85/21 31/74/21
f 26/75/22 25/86/22 29/76/22
f 27/78/23 31/87/23 29/79/23
f 32/81/24 28/88/24 26/82/24
o Cylinder
v 5.594368 -0.064229 -0.448956
v 5.594368 1.142228 -0.448956
v 6.366892 -0.064229 -0.002939
v 6.366892 1.142228 -0.002939
v 6.366892 -0.064229 0.889095
v 6.366892 1.142228 0.889095
v 5.594368 -0.064229 1.335112
v 5.594368 1.142228 1.335112
v 4.821844 -0.064229 0.889095
v 4.821844 1.142228 0.889095
v 4.821844 -0.064229 -0.002939
v 4.821844 1.142228 -0.002939
vt 1.000000 1.000000
vt 0.763708 0.500000
vt 1.000000 0.500000
vt 0.409270 0.500000
vt 0.527416 1.000000
vt 0.409270 1.000000
vt 0.527416 0.500000
vt 0.763708 1.000000
vt 0.000000 0.500000
vt 0.472584 0.375000
vt 0.472584 0.500000
vt 0.677219 0.000000
vt 0.881854 0.125000
vt 0.677219 0.500000
vt 0.000000 0.375000
vt 0.472584 0.125000
vt 0.000000 0.125000
vt 0.472584 0.000000
vt 0.000000 0.625000
vt 0.204635 0.500000
vt 0.409270 0.875000
vt 0.763708 1.000000
vt 0.763708 0.500000
vt 0.472584 0.375000
vt 0.472584 0.125000
vt 0.881854 0.375000
vt 0.000000 0.000000
vt 0.204635 1.000000
vt 0.000000 0.875000
vt 0.409270 0.625000
vn 0.500000 0.000000 -0.866000
vn 1.000000 0.000000 0.000000
vn 0.500000 0.000000 0.866000
vn -0.500000 0.000000 0.866000
vn 0.000000 1.000000 0.000000
vn -1.000000 0.000000 0.000000
vn -0.500000 0.000000 -0.866000
vn 0.000000 -1.000000 0.000000
s off
f 34/89/25 35/90/25 33/91/25
f 36/92/26 37/93/26 35/94/26
f 38/95/27 39/96/27 37/93/27
f 40/97/28 41/98/28 39/99/28
f 44/100/29 42/101/29 38/102/29
f 42/103/30 43/104/30 41/98/30
f 44/105/31 33/106/31 43/104/31
f 37/107/32 39/108/32 43/109/32
f 34/89/25 36/110/25 35/90/25
f 36/92/26 38/95/26 37/93/26
f 38/95/27 40/111/27 39/96/27
f 40/97/28 42/103/28 41/98/28
f 38/102/29 36/112/29 34/113/29
f 34/113/29 44/100/29 38/102/29
f 42/101/29 40/114/29 38/102/29
f 42/103/30 44/105/30 43/104/30
f 44/105/31 34/115/31 33/106/31
f 43/109/32 33/116/32 35/117/32
f 35/117/32 37/107/32 43/109/32
f 39/108/32 41/118/32 43/109/32
o Cube.012_Cube.014
v 5.400262 -0.075882 0.227168
v 5.400262 0.884518 0.227168
v 4.500641 -0.075882 -1.112294
v 4.500641 0.884518 -1.112294
v 5.970093 -0.075882 -0.155547
v 5.970093 0.884518 -0.155547
v 5.070471 -0.075882 -1.495009
v 5.070471 0.884518 -1.495009
vt 0.333333 0.000000
vt 0.666667 0.333333
vt 0.333333 0.333333
vt 0.000000 0.333333
vt 0.333333 0.666667
vt 0.000000 0.666667
vt 0.000000 0.000000
vt 0.333333 0.333333
vt 0.666667 0.333333
vt 0.333333 0.666667
vt 0.333333 0.333333
vt 1.000000 0.333333
vt 0.666667 0.000000
vt 1.000000 0.000000
vt 0.333333 0.666667
vt 0.000000 1.000000
vt 0.000000 0.666667
vt 0.666667 0.000000
vt 0.333333 0.000000
vt 0.666667 0.666667
vt 0.666667 0.333333
vt 0.333333 1.000000
vn -0.830100 0.000000 0.557500
vn -0.557500 0.000000 -0.830100
vn 0.830100 0.000000 -0.557500
vn 0.557500 0.000000 0.830100
vn 0.000000 -1.000000 0.000000
vn 0.000000 1.000000 0.000000
s off
f 48/119/33 45/120/33 46/121/33
f 52/122/34 47/123/34 48/124/34
f 50/125/35 51/126/35 52/122/35
f 46/127/36 49/128/36 50/129/36
f 47/130/37 49/131/37 45/132/37
f 52/133/38 46/134/38 50/135/38
f 48/119/33 47/136/33 45/120/33
f 52/122/34 51/126/34 47/123/34
f 50/125/35 49/137/35 51/126/35
f 46/127/36 45/138/36 49/128/36
f 47/130/37 51/139/37 49/131/37
f 52/133/38 48/140/38 46/134/38
o Cube.008_Cube.013
v 4.540973 -0.075882 -1.106714
v 4.540973 0.884518 -1.106714
v 4.540973 -0.075882 -3.511785
v 4.540973 0.884518 -3.511785
v 5.498967 -0.075882 -1.106714
v 5.498967 0.884518 -1.106714
v 5.498967 -0.075882 -3.511785
v 5.498967 0.884518 -3.511785
vt 0.333333 0.000000
vt 0.666667 0.333333
vt 0.333333 0.333333
vt 0.000000 0.333333
vt 0.333333 0.666667
vt 0.000000 0.666667
vt 0.000000 0.000000
vt 0.333333 0.333333
vt 0.666667 0.333333
vt 0.333333 0.666667
vt 0.333333 0.333333
vt 1.000000 0.333333
vt 0.666667 0.000000
vt 1.000000 0.000000
vt 0.333333 0.666667
vt 0.000000 1.000000
vt 0.000000 0.666667
vt 0.666667 0.000000
vt 0.333333 0.000000
vt 0.666667 0.666667
vt 0.666667 0.333333
vt 0.333333 1.000000
vn -1.000000 0.000000 0.000000
vn 0.000000 0.000000 -1.000000
vn 1.000000 0.000000 0.000000
vn 0.000000 0.000000 1.000000
vn 0.000000 -1.000000 0.000000
vn 0.000000 1.000000 0.000000
s off
f 56/141/39 53/142/39 54/143/39
f 60/144/40 55/145/40 56/146/40
f 58/147/41 59/148/41 60/144/41
f 54/149/42 57/150/42 58/151/42
f 55/152/43 57/153/43 53/154/43
f 60/155/44 54/156/44 58/157/44
f 56/141/39 55/158/39 53/142/39
f 60/144/40 59/148/40 55/145/40
f 58/147/41 57/159/41 59/148/41
f 54/149/42 53/160/42 57/150/42
f 55/152/43 59/161/43 57/153/43
f 60/155/44 56/162/44 54/156/44
o Cube.011_Cube.012
v -5.057862 -0.051348 -8.396953
v -5.057862 0.909052 -8.396953
v -3.323673 -0.051348 -9.417712
v -3.323673 0.909052 -9.417712
v -4.658162 -0.051348 -7.717893
v -4.658162 0.909052 -7.717893
v -2.923972 -0.051348 -8.738652
v -2.923972 0.909052 -8.738652
vt 0.333333 0.000000
vt 0.666667 0.333333
vt 0.333333 0.333333
vt 0.000000 0.333333
vt 0.333333 0.666667
vt 0.000000 0.666667
vt 0.000000 0.000000
vt 0.333333 0.333333
vt 0.666667 0.333333
vt 0.333333 0.666667
vt 0.333333 0.333333
vt 1.000000 0.000000
vt 0.666667 0.333333
vt 0.666667 0.000000
vt 0.333333 0.666667
vt 0.000000 1.000000
vt 0.000000 0.666667
vt 0.666667 0.000000
vt 0.333333 0.000000
vt 0.666667 0.666667
vt 1.000000 0.333333
vt 0.333333 1.000000
vn -0.507300 0.000000 -0.861800
vn 0.861800 0.000000 -0.507300
vn 0.507300 0.000000 0.861800
vn -0.861800 0.000000 0.507300
vn 0.000000 -1.000000 -0.000000
vn 0.000000 1.000000 0.000000
s off
f 64/163/45 61/164/45 62/165/45
f 68/166/46 63/167/46 64/168/46
f 66/169/47 67/170/47 68/166/47
f 62/171/48 65/172/48 66/173/48
f 61/174/49 67/175/49 65/176/49
f 68/177/50 62/178/50 66/179/50
f 64/163/45 63/180/45 61/164/45
f 68/166/46 67/170/46 63/167/46
f 66/169/47 65/181/47 67/170/47
f 62/171/48 61/182/48 65/172/48
f 61/174/49 63/183/49 67/175/49
f 68/177/50 64/184/50 62/178/50
o Cube.010_Cube.011
v 3.188731 -0.051348 -5.850772
v 3.188731 0.909052 -5.850772
v 2.455666 -0.051348 -7.368422
v 2.455666 0.909052 -7.368422
v 4.161811 -0.051348 -6.320795
v 4.161811 0.909052 -6.320795
v 3.428746 -0.051348 -7.838445
v 3.428746 0.909052 -7.838445
vt 0.333333 0.000000
vt 0.666667 0.333333
vt 0.333333 0.333333
vt 0.000000 0.333333
vt 0.333333 0.666667
vt 0.000000 0.666667
vt 0.000000 0.000000
vt 0.333333 0.333333
vt 0.666667 0.333333
vt 0.333333 0.666667
vt 0.333333 0.333333
vt 1.000000 0.000000
vt 0.666667 0.333333
vt 0.666667 0.000000
vt 0.333333 0.666667
vt 0.000000 1.000000
vt 0.000000 0.666667
vt 0.666667 0.000000
vt 0.333333 0.000000
vt 0.666667 0.666667
vt 1.000000 0.333333
vt 0.333333 1.000000
vn -0.900500 0.000000 0.434900
vn -0.434900 0.000000 -0.900500
vn 0.900500 0.000000 -0.434900
vn 0.434900 0.000000 0.900500
vn 0.000000 -1.000000 0.000000
vn 0.000000 1.000000 0.000000
s off
f 72/185/51 69/186/51 70/187/51
f 76/188/52 71/189/52 72/190/52
f 74/191/53 75/192/53 76/188/53
f 70/193/54 73/194/54 74/195/54
f 69/196/55 75/197/55 73/198/55
f 76/199/56 70/200/56 74/201/56
f 72/185/51 71/202/51 69/186/51
f 76/188/52 75/192/52 71/189/52
f 74/191/53 73/203/53 75/192/53
f 70/193/54 69/204/54 73/194/54
f 69/196/55 71/205/55 75/197/55
f 76/199/56 72/206/56 70/200/56
o Cube.009_Cube.010
v 1.272202 -0.051348 -8.142054
v 1.272202 0.909052 -8.142054
v 2.144716 -0.051348 -9.528183
v 2.144716 0.909052 -9.528183
v 2.653834 -0.051348 -7.272370
v 2.653834 0.909052 -7.272370
v 3.526348 -0.051348 -8.658499
v 3.526348 0.909052 -8.658499
vt 0.333333 0.000000
vt 0.666667 0.333333
vt 0.333333 0.333333
vt 0.000000 0.333333
vt 0.333333 0.666667
vt 0.000000 0.666667
vt 0.000000 0.000000
vt 0.333333 0.333333
vt 0.666667 0.333333
vt 0.333333 0.666667
vt 0.333333 0.333333
vt 1.000000 0.333333
vt 0.666667 0.000000
vt 1.000000 0.000000
vt 0.333333 0.666667
vt 0.000000 1.000000
vt 0.000000 0.666667
vt 0.666667 0.000000
vt 0.333333 0.000000
vt 0.666667 0.666667
vt 0.666667 0.333333
vt 0.333333 1.000000
vn -0.846300 0.000000 -0.532700
vn 0.532700 0.000000 -0.846300
vn 0.846300 0.000000 0.532700
vn -0.532700 0.000000 0.846300
vn 0.000000 -1.000000 0.000000
vn 0.000000 1.000000 -0.000000
s off
f 80/207/57 77/208/57 78/209/57
f 84/210/58 79/211/58 80/212/58
f 82/213/59 83/214/59 84/210/59
f 78/215/60 81/216/60 82/217/60
f 79/218/61 81/219/61 77/220/61
f 84/221/62 78/222/62 82/223/62
f 80/207/57 79/224/57 77/208/57
f 84/210/58 83/214/58 79/211/58
f 82/213/59 81/225/59 83/214/59
f 78/215/60 77/226/60 81/216/60
f 79/218/61 83/227/61 81/219/61
f 84/221/62 80/228/62 78/222/62
o Cube.007_Cube.008
v 2.550137 -0.051348 5.526620
v 2.550137 0.909052 5.526620
v 4.161014 -0.051348 3.399368
v 4.161014 0.909052 3.399368
v 4.227528 -0.051348 6.796837
v 4.227528 0.909052 6.796837
v 5.838406 -0.051348 4.669585
v 5.838406 0.909052 4.669585
vt 0.333333 0.000000
vt 0.666667 0.333333
vt 0.333333 0.333333
vt 0.000000 0.333333
vt 0.333333 0.666667
vt 0.000000 0.666667
vt 0.000000 0.000000
vt 0.333333 0.333333
vt 0.666667 0.333333
vt 0.333333 0.666667
vt 0.333333 0.333333
vt 1.000000 0.333333
vt 0.666667 0.000000
vt 1.000000 0.000000
vt 0.333333 0.666667
vt 0.000000 1.000000
vt 0.000000 0.666667
vt 0.666667 0.000000
vt 0.333333 0.000000
vt 0.666667 0.666667
vt 0.666667 0.333333
vt 0.333333 1.000000
vn -0.797200 0.000000 -0.603700
vn 0.603700 0.000000 -0.797200
vn 0.797200 0.000000 0.603700
vn -0.603700 0.000000 0.797200
vn 0.000000 -1.000000 0.000000
vn 0.000000 1.000000 0.000000
s off
f 88/229/63 85/230/63 86/231/63
f 92/232/64 87/233/64 88/234/64
f 90/235/65 91/236/65 92/232/65
f 86/237/66 89/238/66 90/239/66
f 87/240/67 89/241/67 85/242/67
f 92/243/68 86/244/68 90/245/68
f 88/229/63 87/246/63 85/230/63
f 92/232/64 91/236/64 87/233/64
f 90/235/65 89/247/65 91/236/65
f 86/237/66 85/248/66 89/238/66
f 87/240/67 91/249/67 89/241/67
f 92/243/68 88/250/68 86/244/68
o Cube.006_Cube.007
v -6.263237 -0.051348 3.734150
v -6.263237 0.909052 3.734150
v -6.776497 -0.051348 0.930870
v -6.776497 0.909052 0.930870
v -4.316666 -0.051348 3.377747
v -4.316666 0.909052 3.377747
v -4.829926 -0.051348 0.574467
v -4.829926 0.909052 0.574467
vt 0.333333 0.000000
vt 0.666667 0.333333
vt 0.333333 0.333333
vt 0.000000 0.333333
vt 0.333333 0.666667
vt 0.000000 0.666667
vt 0.000000 0.000000
vt 0.333333 0.333333
vt 0.666667 0.333333
vt 0.333333 0.666667
vt 0.333333 0.333333
vt 1.000000 0.333333
vt 0.666667 0.000000
vt 1.000000 0.000000
vt 0.333333 0.666667
vt 0.000000 1.000000
vt 0.000000 0.666667
vt 0.666667 0.000000
vt 0.333333 0.000000
vt 0.666667 0.666667
vt 0.666667 0.333333
vt 0.333333 1.000000
vn -0.983600 0.000000 0.180100
vn -0.180100 0.000000 -0.983600
vn 0.983600 0.000000 -0.180100
vn 0.180100 0.000000 0.983600
vn 0.000000 -1.000000 -0.000000
vn 0.000000 1.000000 0.000000
s off
f 96/251/69 93/252/69 94/253/69
f 100/254/70 95/255/70 96/256/70
f 98/257/71 99/258/71 100/254/71
f 94/259/72 97/260/72 98/261/72
f 95/262/73 97/263/73 93/264/73
f 100/265/74 94/266/74 98/267/74
f 96/251/69 95/268/69 93/252/69
f 100/254/70 99/258/70 95/255/70
f 98/257/71 97/269/71 99/258/71
f 94/259/72 93/270/72 97/260/72
f 95/262/73 99/271/73 97/263/73
f 100/265/74 96/272/74 94/266/74
o Cube.005_Cube.006
v -6.101894 -0.051348 6.593572
v -6.101894 0.909052 6.593572
v -6.101894 -0.051348 3.518389
v -6.101894 0.909052 3.518389
v -3.773541 -0.051348 6.593572
v -3.773541 0.909052 6.593572
v -3.773541 -0.051348 3.518389
v -3.773541 0.909052 3.518389
vt 0.333333 0.000000
vt 0.666667 0.333333
vt 0.333333 0.333333
vt 0.000000 0.333333
vt 0.333333 0.666667
vt 0.000000 0.666667
vt 0.000000 0.000000
vt 0.333333 0.333333
vt 0.666667 0.333333
vt 0.333333 0.666667
vt 0.333333 0.333333
vt 1.000000 0.333333
vt 0.666667 0.000000
vt 1.000000 0.000000
vt 0.333333 0.666667
vt 0.000000 1.000000
vt 0.000000 0.666667
vt 0.666667 0.000000
vt 0.333333 0.000000
vt 0.666667 0.666667
vt 0.666667 0.333333
vt 0.333333 1.000000
vn -1.000000 0.000000 0.000000
vn 0.000000 0.000000 -1.000000
vn 1.000000 0.000000 0.000000
vn 0.000000 0.000000 1.000000
vn 0.000000 -1.000000 0.000000
vn 0.000000 1.000000 0.000000
s off
f 104/273/75 101/274/75 102/275/75
f 108/276/76 103/277/76 104/278/76
f 106/279/77 107/280/77 108/276/77
f 102/281/78 105/282/78 106/283/78
f 103/284/79 105/285/79 101/286/79
f 108/287/80 102/288/80 106/289/80
f 104/273/75 103/290/75 101/274/75
f 108/276/76 107/280/76 103/277/76
f 106/279/77 105/291/77 107/280/77
f 102/281/78 101/292/78 105/282/78
f 103/284/79 107/293/79 105/285/79
f 108/287/80 104/294/80 102/288/80
o Cube.004_Cube.005
v -5.692596 -0.051348 9.653067
v -5.692596 0.909052 9.653067
v -5.692596 -0.051348 6.714106
v -5.692596 0.909052 6.714106
v 4.145947 -0.051348 9.653067
v 4.145947 0.909052 9.653067
v 4.145947 -0.051348 6.714106
v 4.145947 0.909052 6.714106
vt 0.333333 0.000000
vt 0.666667 0.333333
vt 0.333333 0.333333
vt 0.000000 0.333333
vt 0.333333 0.666667
vt 0.000000 0.666667
vt 0.000000 0.000000
vt 0.333333 0.333333
vt 0.666667 0.333333
vt 0.333333 0.666667
vt 0.333333 0.333333
vt 1.000000 0.333333
vt 0.666667 0.000000
vt 1.000000 0.000000
vt 0.333333 0.666667
vt 0.000000 1.000000
vt 0.000000 0.666667
vt 0.666667 0.000000
vt 0.333333 0.000000
vt 0.666667 0.666667
vt 0.666667 0.333333
vt 0.333333 1.000000
vn -1.000000 0.000000 0.000000
vn 0.000000 0.000000 -1.000000
vn 1.000000 0.000000 0.000000
vn 0.000000 0.000000 1.000000
vn 0.000000 -1.000000 0.000000
vn 0.000000 1.000000 0.000000
s off
f 112/295/81 109/296/81 110/297/81
f 116/298/82 111/299/82 112/300/82
f 114/301/83 115/302/83 116/298/83
f 110/303/84 113/304/84 114/305/84
f 111/306/85 113/307/85 109/308/85
f 116/309/86 110/310/86 114/311/86
f 112/295/81 111/312/81 109/296/81
f 116/298/82 115/302/82 111/299/82
f 114/301/83 113/313/83 115/302/83
f 110/303/84 109/314/84 113/304/84
f 111/306/85 115/315/85 113/307/85
f 116/309/86 112/316/86 110/310/86
o Cube.003_Cube.004
v -2.934992 -0.051348 -8.606957
v -2.934992 0.909052 -8.606957
v -2.934992 -0.051348 -11.915687
v -2.934992 0.909052 -11.915687
v 1.867009 -0.051348 -8.606957
v 1.867009 0.909052 -8.606957
v 1.867009 -0.051348 -11.915687
v 1.867009 0.909052 -11.915687
vt 0.333333 0.000000
vt 0.666667 0.333333
vt 0.333333 0.333333
vt 0.000000 0.333333
vt 0.333333 0.666667
vt 0.000000 0.666667
vt 0.000000 0.000000
vt 0.333333 0.333333
vt 0.666667 0.333333
vt 0.333333 0.666667
vt 0.333333 0.333333
vt 1.000000 0.333333
vt 0.666667 0.000000
vt 1.000000 0.000000
vt 0.333333 0.666667
vt 0.000000 1.000000
vt 0.000000 0.666667
vt 0.666667 0.000000
vt 0.333333 0.000000
vt 0.666667 0.666667
vt 0.666667 0.333333
vt 0.333333 1.000000
vn -1.000000 0.000000 0.000000
vn 0.000000 0.000000 -1.000000
vn 1.000000 0.000000 0.000000
vn 0.000000 0.000000 1.000000
vn 0.000000 -1.000000 0.000000
vn 0.000000 1.000000 0.000000
s off
f 120/317/87 117/318/87 118/319/87
f 124/320/88 119/321/88 120/322/88
f 122/323/89 123/324/89 124/320/89
f 118/325/90 121/326/90 122/327/90
f 119/328/91 121/329/91 117/330/91
f 124/331/92 118/332/92 122/333/92
f 120/317/87 119/334/87 117/318/87
f 124/320/88 123/324/88 119/321/88
f 122/323/89 121/335/89 123/324/89
f 118/325/90 117/336/90 121/326/90
f 119/328/91 123/337/91 121/329/91
f 124/331/92 120/338/92 118/332/92
o Cube.002_Cube.003
v 3.677861 -0.051348 3.394892
v 3.677861 0.909052 3.394892
v 3.677861 -0.051348 1.403879
v 3.677861 0.909052 1.403879
v 5.784808 -0.051348 3.394892
v 5.784808 0.909052 3.394892
v 5.784808 -0.051348 1.403879
v 5.784808 0.909052 1.403879
vt 0.333333 0.000000
vt 0.666667 0.333333
vt 0.333333 0.333333
vt 0.000000 0.333333
vt 0.333333 0.666667
vt 0.000000 0.666667
vt 0.000000 0.000000
vt 0.333333 0.333333
vt 0.666667 0.333333
vt 0.333333 0.666667
vt 0.333333 0.333333
vt 1.000000 0.333333
vt 0.666667 0.000000
vt 1.000000 0.000000
vt 0.333333 0.666667
vt 0.000000 1.000000
vt 0.000000 0.666667
vt 0.666667 0.000000
vt 0.333333 0.000000
vt 0.666667 0.666667
vt 0.666667 0.333333
vt 0.333333 1.000000
vn -1.000000 0.000000 0.000000
vn 0.000000 0.000000 -1.000000
vn 1.000000 0.000000 0.000000
vn 0.000000 0.000000 1.000000
vn 0.000000 -1.000000 0.000000
vn 0.000000 1.000000 0.000000
s off
f 128/339/93 125/340/93 126/341/93
f 132/342/94 127/343/94 128/344/94
f 130/345/95 131/346/95 132/342/95
f 126/347/96 129/348/96 130/349/96
f 127/350/97 129/351/97 125/352/97
f 132/353/98 126/354/98 130/355/98
f 128/339/93 127/356/93 125/340/93
f 132/342/94 131/346/94 127/343/94
f 130/345/95 129/357/95 131/346/95
f 126/347/96 125/358/96 129/348/96
f 127/350/97 131/359/97 129/351/97
f 132/353/98 128/360/98 126/354/98
o Cube.001_Cube.002
v 3.046909 -0.051348 -3.468039
v 3.046909 0.909052 -3.468039
v 3.046909 -0.051348 -5.949571
v 3.046909 0.909052 -5.949571
v 3.974560 -0.051348 -3.468039
v 3.974560 0.909052 -3.468039
v 3.974560 -0.051348 -5.949571
v 3.974560 0.909052 -5.949571
vt 0.333333 0.000000
vt 0.666667 0.333333
vt 0.333333 0.333333
vt 0.000000 0.333333
vt 0.333333 0.666667
vt 0.000000 0.666667
vt 0.000000 0.000000
vt 0.333333 0.333333
vt 0.666667 0.333333
vt 0.333333 0.666667
vt 0.333333 0.333333
vt 1.000000 0.333333
vt 0.666667 0.000000
vt 1.000000 0.000000
vt 0.333333 0.666667
vt 0.000000 1.000000
vt 0.000000 0.666667
vt 0.666667 0.000000
vt 0.333333 0.000000
vt 0.666667 0.666667
vt 0.666667 0.333333
vt 0.333333 1.000000
vn -1.000000 0.000000 0.000000
vn 0.000000 0.000000 -1.000000
vn 1.000000 0.000000 0.000000
vn 0.000000 0.000000 1.000000
vn 0.000000 -1.000000 0.000000
vn 0.000000 1.000000 0.000000
s off
f 136/361/99 133/362/99 134/363/99
f 140/364/100 135/365/100 136/366/100
f 138/367/101 139/368/101 140/364/101
f 134/369/102 137/370/102 138/371/102
f 135/372/103 137/373/103 133/374/103
f 140/375/104 134/376/104 138/377/104
f 136/361/99 135/378/99 133/362/99
f 140/364/100 139/368/100 135/365/100
f 138/367/101 137/379/101 139/368/101
f 134/369/102 133/380/102 137/370/102
f 135/372/103 139/381/103 137/373/103
f 140/375/104 136/382/104 134/376/104
o Cube_Cube.001
v -5.639740 -0.051348 0.489822
v -5.639740 0.909052 0.489822
v -5.639740 -0.051348 -7.753433
v -5.639740 0.909052 -7.753433
v -4.714363 -0.051348 0.489822
v -4.714363 0.909052 0.489822
v -4.714363 -0.051348 -7.753433
v -4.714363 0.909052 -7.753433
vt 0.333333 0.000000
vt 0.666667 0.333333
vt 0.333333 0.333333
vt 0.000000 0.333333
vt 0.333333 0.666667
vt 0.000000 0.666667
vt 0.000000 0.000000
vt 0.333333 0.333333
vt 0.666667 0.333333
vt 0.333333 0.666667
vt 0.333333 0.333333
vt 1.000000 0.333333
vt 0.666667 0.000000
vt 1.000000 0.000000
vt 0.333333 0.666667
vt 0.000000 1.000000
vt 0.000000 0.666667
vt 0.666667 0.000000
vt 0.333333 0.000000
vt 0.666667 0.666667
vt 0.666667 0.333333
vt 0.333333 1.000000
vn -1.000000 0.000000 0.000000
vn 0.000000 0.000000 -1.000000
vn 1.000000 0.000000 0.000000
vn 0.000000 0.000000 1.000000
vn 0.000000 -1.000000 0.000000
vn 0.000000 1.000000 0.000000
s off
f 144/383/105 141/384/105 142/385/105
f 148/386/106 143/387/106 144/388/106
f 146/389/107 147/390/107 148/386/107
f 142/391/108 145/392/108 146/393/108
f 143/394/109 145/395/109 141/396/109
f 148/397/110 142/398/110 146/399/110
f 144/383/105 143/400/105 141/384/105
f 148/386/106 147/390/106 143/387/106
f 146/389/107 145/401/107 147/390/107
f 142/391/108 141/402/108 145/392/108
f 143/394/109 147/403/109 145/395/109
f 148/397/110 144/404/110 142/398/110
