# Blender v2.77 (sub 0) OBJ File: 'mapLayout8.blend'
# www.blender.org
o col_Cube.005
v -26.523834 -0.631190 59.714684
v -26.523834 2.250010 59.714684
v -26.523834 -0.631190 46.471710
v -26.523834 2.250010 46.471710
v 15.329221 -0.631190 59.714684
v 15.329221 2.250010 59.714684
v 15.329221 -0.631190 46.471710
v 15.329221 2.250010 46.471710
v -19.264208 0.642334 33.683956
v -19.264208 3.523533 33.683956
v -19.264208 0.642334 9.641502
v -19.264208 3.523533 9.641502
v 20.101074 0.642334 33.683956
v 20.101074 3.523533 33.683956
v 20.101074 0.642334 9.641502
v 20.101074 3.523533 9.641502
v -37.718136 -0.071988 -5.022354
v -37.718136 5.928012 -5.022354
v -37.718136 -0.071988 -23.145088
v -37.718136 5.928012 -23.145088
v 30.422749 -0.071988 -5.022354
v 30.422749 5.928012 -5.022354
v 30.422749 -0.071988 -23.145088
v 30.422749 5.928012 -23.145088
v -29.298038 0.501571 -38.437599
v -29.298038 3.382771 -38.437599
v -29.298038 0.501571 -66.144669
v -29.298038 3.382771 -66.144669
v 17.689598 0.501571 -38.437599
v 17.689598 3.382771 -38.437599
v 17.689598 0.501571 -66.144669
v 17.689598 3.382771 -66.144669
v 55.943676 -0.642289 -4.489563
v 55.943676 11.422281 -4.489563
v 63.668915 -0.642289 -0.029396
v 63.668915 11.422281 -0.029396
v 63.668915 -0.642289 8.890938
v 63.668915 11.422281 8.890938
v 55.943676 -0.642289 13.351105
v 55.943676 11.422281 13.351105
v 48.218437 -0.642289 8.890938
v 48.218437 11.422281 8.890938
v 48.218437 -0.642289 -0.029396
v 48.218437 11.422281 -0.029396
v 54.002636 -0.758819 2.271660
v 54.002636 8.845179 2.271660
v 45.006424 -0.758819 -11.122948
v 45.006424 8.845179 -11.122948
v 59.700935 -0.758819 -1.555481
v 59.700935 8.845179 -1.555481
v 50.704723 -0.758819 -14.950096
v 50.704723 8.845179 -14.950096
v 45.409725 -0.758819 -11.067162
v 45.409725 8.845179 -11.067162
v 45.409725 -0.758819 -35.117874
v 45.409725 8.845179 -35.117874
v 54.989655 -0.758819 -11.067162
v 54.989655 8.845179 -11.067162
v 54.989655 -0.758819 -35.117874
v 54.989655 8.845179 -35.117874
v -50.578602 -0.513479 -83.969574
v -50.578602 9.090519 -83.969574
v -33.236717 -0.513479 -94.177155
v -33.236717 9.090519 -94.177155
v -46.581600 -0.513479 -77.178986
v -46.581600 9.090519 -77.178986
v -29.239712 -0.513479 -87.386566
v -29.239712 9.090519 -87.386566
v 31.887310 -0.513479 -58.507751
v 31.887310 9.090519 -58.507751
v 24.556664 -0.513479 -73.684235
v 24.556664 9.090519 -73.684235
v 41.618114 -0.513479 -63.207977
v 41.618114 9.090519 -63.207977
v 34.287464 -0.513479 -78.384476
v 34.287464 9.090519 -78.384476
v 12.722011 -0.513479 -81.420517
v 12.722011 9.090519 -81.420517
v 21.447155 -0.513479 -95.281815
v 21.447155 9.090519 -95.281815
v 26.538330 -0.513479 -72.723679
v 26.538330 9.090519 -72.723679
v 35.263474 -0.513479 -86.584976
v 35.263474 9.090519 -86.584976
v 25.501362 -0.513478 55.266212
v 25.501362 9.090520 55.266212
v 41.610134 -0.513478 33.993690
v 41.610134 9.090520 33.993690
v 42.275276 -0.513478 67.968384
v 42.275276 9.090520 67.968384
v 58.384048 -0.513478 46.695862
v 58.384048 9.090520 46.695862
v -62.632347 -0.513478 37.341492
v -62.632347 9.090519 37.341492
v -67.764954 -0.513478 9.308693
v -67.764954 9.090519 9.308693
v -43.166649 -0.513478 33.777462
v -43.166649 9.090519 33.777462
v -48.299252 -0.513478 5.744667
v -48.299252 9.090519 5.744667
v -61.018944 -0.513478 65.935715
v -61.018944 9.090520 65.935715
v -61.018944 -0.513478 35.183895
v -61.018944 9.090520 35.183895
v -37.735413 -0.513478 65.935715
v -37.735413 9.090520 65.935715
v -37.735413 -0.513478 35.183895
v -37.735413 9.090520 35.183895
v -56.925949 -0.513478 96.530647
v -56.925949 9.090520 96.530647
v -56.925949 -0.513478 67.141045
v -56.925949 9.090520 67.141045
v 41.459457 -0.513478 96.530647
v 41.459457 9.090520 96.530647
v 41.459457 -0.513478 67.141045
v 41.459457 9.090520 67.141045
v -29.349911 -0.513479 -86.069626
v -29.349911 9.090519 -86.069626
v -29.349911 -0.513479 -119.156906
v -29.349911 9.090519 -119.156906
v 18.670086 -0.513479 -86.069626
v 18.670086 9.090519 -86.069626
v 18.670086 -0.513479 -119.156906
v 18.670086 9.090519 -119.156906
v 36.778606 -0.513478 33.948914
v 36.778606 9.090519 33.948914
v 36.778606 -0.513478 14.038788
v 36.778606 9.090519 14.038788
v 57.848076 -0.513478 33.948914
v 57.848076 9.090519 33.948914
v 57.848076 -0.513478 14.038788
v 57.848076 9.090519 14.038788
v 30.469097 -0.513479 -34.680397
v 30.469097 9.090519 -34.680397
v 30.469097 -0.513479 -59.495697
v 30.469097 9.090519 -59.495697
v 39.745613 -0.513479 -34.680397
v 39.745613 9.090519 -34.680397
v 39.745613 -0.513479 -59.495697
v 39.745613 9.090519 -59.495697
v -56.397404 -0.513478 4.898209
v -56.397404 9.090519 4.898209
v -56.397404 -0.513479 -77.534317
v -56.397404 9.090519 -77.534317
v -47.143631 -0.513478 4.898209
v -47.143631 9.090519 4.898209
v -47.143631 -0.513479 -77.534317
v -47.143631 9.090519 -77.534317
vt 0.333333 0.000000
vt 0.666667 0.333333
vt 0.333333 0.333333
vt 0.000000 0.333333
vt 0.333333 0.666667
vt 0.000000 0.666667
vt 0.000000 0.000000
vt 0.333333 0.333333
vt 0.666667 0.333333
vt 0.333333 0.666667
vt 0.333333 0.333333
vt 1.000000 0.333333
vt 0.666667 0.000000
vt 1.000000 0.000000
vt 0.333333 0.666667
vt 0.000000 1.000000
vt 0.000000 0.666667
vt 0.333333 0.000000
vt 0.666667 0.333333
vt 0.333333 0.333333
vt 0.000000 0.333333
vt 0.333333 0.666667
vt 0.000000 0.666667
vt 0.000000 0.000000
vt 0.333333 0.333333
vt 0.666667 0.333333
vt 0.333333 0.666667
vt 0.333333 0.333333
vt 1.000000 0.333333
vt 0.666667 0.000000
vt 1.000000 0.000000
vt 0.333333 0.666667
vt 0.000000 1.000000
vt 0.000000 0.666667
vt 0.333333 0.000000
vt 0.666667 0.333333
vt 0.333333 0.333333
vt 0.000000 0.333333
vt 0.333333 0.666667
vt 0.000000 0.666667
vt 0.000000 0.000000
vt 0.333333 0.333333
vt 0.666667 0.333333
vt 0.333333 0.666667
vt 0.333333 0.333333
vt 1.000000 0.333333
vt 0.666667 0.000000
vt 1.000000 0.000000
vt 0.333333 0.666667
vt 0.000000 1.000000
vt 0.000000 0.666667
vt 0.333333 0.000000
vt 0.666667 0.333333
vt 0.333333 0.333333
vt 0.000000 0.333333
vt 0.333333 0.666667
vt 0.000000 0.666667
vt 0.000000 0.000000
vt 0.333333 0.333333
vt 0.666667 0.333333
vt 0.333333 0.666667
vt 0.333333 0.333333
vt 1.000000 0.333333
vt 0.666667 0.000000
vt 1.000000 0.000000
vt 0.333333 0.666667
vt 0.000000 1.000000
vt 0.000000 0.666667
vt 1.000000 1.000000
vt 0.763708 0.500000
vt 1.000000 0.500000
vt 0.409270 0.500000
vt 0.527416 1.000000
vt 0.409270 1.000000
vt 0.527416 0.500000
vt 0.763708 1.000000
vt 0.000000 0.500000
vt 0.472584 0.375000
vt 0.472584 0.500000
vt 0.472584 0.125000
vt 0.881854 0.375000
vt 0.677219 0.500000
vt 0.000000 0.375000
vt 0.472584 0.125000
vt 0.000000 0.125000
vt 0.472584 0.000000
vt 0.000000 0.875000
vt 0.204635 0.500000
vt 0.204635 1.000000
vt 0.333333 0.000000
vt 0.666667 0.333333
vt 0.333333 0.333333
vt 0.000000 0.333333
vt 0.333333 0.666667
vt 0.000000 0.666667
vt 0.000000 0.000000
vt 0.333333 0.333333
vt 0.666667 0.333333
vt 0.333333 0.666667
vt 0.333333 0.333333
vt 1.000000 0.333333
vt 0.666667 0.000000
vt 1.000000 0.000000
vt 0.000000 0.666667
vt 0.333333 1.000000
vt 0.000000 1.000000
vt 0.333333 0.000000
vt 0.666667 0.333333
vt 0.333333 0.333333
vt 0.000000 0.333333
vt 0.333333 0.666667
vt 0.000000 0.666667
vt 0.000000 0.000000
vt 0.333333 0.333333
vt 0.666667 0.333333
vt 0.333333 0.666667
vt 0.333333 0.333333
vt 1.000000 0.333333
vt 0.666667 0.000000
vt 1.000000 0.000000
vt 0.333333 0.666667
vt 0.000000 1.000000
vt 0.000000 0.666667
vt 0.333333 0.000000
vt 0.666667 0.333333
vt 0.333333 0.333333
vt 0.000000 0.333333
vt 0.333333 0.666667
vt 0.000000 0.666667
vt 0.000000 0.000000
vt 0.333333 0.333333
vt 0.666667 0.333333
vt 0.333333 0.666667
vt 0.333333 0.333333
vt 1.000000 0.333333
vt 0.666667 0.000000
vt 1.000000 0.000000
vt 0.000000 0.666667
vt 0.333333 1.000000
vt 0.000000 1.000000
vt 0.333333 0.000000
vt 0.666667 0.333333
vt 0.333333 0.333333
vt 0.000000 0.333333
vt 0.333333 0.666667
vt 0.000000 0.666667
vt 0.000000 0.000000
vt 0.333333 0.333333
vt 0.666667 0.333333
vt 0.333333 0.666667
vt 0.333333 0.333333
vt 1.000000 0.000000
vt 0.666667 0.333333
vt 0.666667 0.000000
vt 0.333333 0.666667
vt 0.000000 1.000000
vt 0.000000 0.666667
vt 0.333333 0.000000
vt 0.666667 0.333333
vt 0.333333 0.333333
vt 0.000000 0.333333
vt 0.333333 0.666667
vt 0.000000 0.666667
vt 0.000000 0.000000
vt 0.333333 0.333333
vt 0.666667 0.333333
vt 0.333333 0.666667
vt 0.333333 0.333333
vt 1.000000 0.000000
vt 0.666667 0.333333
vt 0.666667 0.000000
vt 0.333333 0.666667
vt 0.000000 1.000000
vt 0.000000 0.666667
vt 0.333333 0.000000
vt 0.666667 0.333333
vt 0.333333 0.333333
vt 0.000000 0.333333
vt 0.333333 0.666667
vt 0.000000 0.666667
vt 0.000000 0.000000
vt 0.333333 0.333333
vt 0.666667 0.333333
vt 0.333333 0.666667
vt 0.333333 0.333333
vt 1.000000 0.333333
vt 0.666667 0.000000
vt 1.000000 0.000000
vt 0.333333 0.666667
vt 0.000000 1.000000
vt 0.000000 0.666667
vt 0.333333 0.000000
vt 0.666667 0.333333
vt 0.333333 0.333333
vt 0.000000 0.333333
vt 0.333333 0.666667
vt 0.000000 0.666667
vt 0.000000 0.000000
vt 0.333333 0.333333
vt 0.666667 0.333333
vt 0.333333 0.666667
vt 0.333333 0.333333
vt 1.000000 0.333333
vt 0.666667 0.000000
vt 1.000000 0.000000
vt 0.333333 0.666667
vt 0.000000 1.000000
vt 0.000000 0.666667
vt 0.333333 0.000000
vt 0.666667 0.333333
vt 0.333333 0.333333
vt 0.000000 0.333333
vt 0.333333 0.666667
vt 0.000000 0.666667
vt 0.000000 0.000000
vt 0.333333 0.333333
vt 0.666667 0.333333
vt 0.333333 0.666667
vt 0.333333 0.333333
vt 1.000000 0.333333
vt 0.666667 0.000000
vt 1.000000 0.000000
vt 0.333333 0.666667
vt 0.000000 1.000000
vt 0.000000 0.666667
vt 0.333333 0.000000
vt 0.666667 0.333333
vt 0.333333 0.333333
vt 0.000000 0.333333
vt 0.333333 0.666667
vt 0.000000 0.666667
vt 0.000000 0.000000
vt 0.333333 0.333333
vt 0.666667 0.333333
vt 0.333333 0.666667
vt 0.333333 0.333333
vt 1.000000 0.333333
vt 0.666667 0.000000
vt 1.000000 0.000000
vt 0.333333 0.666667
vt 0.000000 1.000000
vt 0.000000 0.666667
vt 0.333333 0.000000
vt 0.666667 0.333333
vt 0.333333 0.333333
vt 0.000000 0.333333
vt 0.333333 0.666667
vt 0.000000 0.666667
vt 0.000000 0.000000
vt 0.333333 0.333333
vt 0.666667 0.333333
vt 0.333333 0.666667
vt 0.333333 0.333333
vt 1.000000 0.333333
vt 0.666667 0.000000
vt 1.000000 0.000000
vt 0.333333 0.666667
vt 0.000000 1.000000
vt 0.000000 0.666667
vt 0.333333 0.000000
vt 0.666667 0.333333
vt 0.333333 0.333333
vt 0.000000 0.333333
vt 0.333333 0.666667
vt 0.000000 0.666667
vt 0.000000 0.000000
vt 0.333333 0.333333
vt 0.666667 0.333333
vt 0.333333 0.666667
vt 0.333333 0.333333
vt 1.000000 0.333333
vt 0.666667 0.000000
vt 1.000000 0.000000
vt 0.333333 0.666667
vt 0.000000 1.000000
vt 0.000000 0.666667
vt 0.333333 0.000000
vt 0.666667 0.333333
vt 0.333333 0.333333
vt 0.000000 0.333333
vt 0.333333 0.666667
vt 0.000000 0.666667
vt 0.000000 0.000000
vt 0.333333 0.333333
vt 0.666667 0.333333
vt 0.333333 0.666667
vt 0.333333 0.333333
vt 1.000000 0.333333
vt 0.666667 0.000000
vt 1.000000 0.000000
vt 0.333333 0.666667
vt 0.000000 1.000000
vt 0.000000 0.666667
vt 0.333333 0.000000
vt 0.666667 0.333333
vt 0.333333 0.333333
vt 0.000000 0.333333
vt 0.333333 0.666667
vt 0.000000 0.666667
vt 0.000000 0.000000
vt 0.333333 0.333333
vt 0.666667 0.333333
vt 0.333333 0.666667
vt 0.333333 0.333333
vt 1.000000 0.333333
vt 0.666667 0.000000
vt 1.000000 0.000000
vt 0.333333 0.666667
vt 0.000000 1.000000
vt 0.000000 0.666667
vt 0.666667 0.000000
vt 0.333333 0.000000
vt 0.666667 0.666667
vt 0.666667 0.333333
vt 0.333333 1.000000
vt 0.666667 0.000000
vt 0.333333 0.000000
vt 0.666667 0.666667
vt 0.666667 0.333333
vt 0.333333 1.000000
vt 0.666667 0.000000
vt 0.333333 0.000000
vt 0.666667 0.666667
vt 0.666667 0.333333
vt 0.333333 1.000000
vt 0.666667 0.000000
vt 0.333333 0.000000
vt 0.666667 0.666667
vt 0.666667 0.333333
vt 0.333333 1.000000
vt 0.763708 1.000000
vt 0.763708 0.500000
vt 0.472584 0.375000
vt 0.677219 0.000000
vt 0.881854 0.125000
vt 0.000000 0.000000
vt 0.409270 0.875000
vt 0.000000 0.625000
vt 0.409270 0.625000
vt 0.666667 0.000000
vt 0.333333 0.000000
vt 0.666667 0.666667
vt 0.666667 0.333333
vt 0.333333 0.666667
vt 0.666667 0.000000
vt 0.333333 0.000000
vt 0.666667 0.666667
vt 0.666667 0.333333
vt 0.333333 1.000000
vt 0.666667 0.000000
vt 0.333333 0.000000
vt 0.666667 0.666667
vt 0.666667 0.333333
vt 0.333333 0.666667
vt 0.666667 0.000000
vt 0.333333 0.000000
vt 0.666667 0.666667
vt 1.000000 0.333333
vt 0.333333 1.000000
vt 0.666667 0.000000
vt 0.333333 0.000000
vt 0.666667 0.666667
vt 1.000000 0.333333
vt 0.333333 1.000000
vt 0.666667 0.000000
vt 0.333333 0.000000
vt 0.666667 0.666667
vt 0.666667 0.333333
vt 0.333333 1.000000
vt 0.666667 0.000000
vt 0.333333 0.000000
vt 0.666667 0.666667
vt 0.666667 0.333333
vt 0.333333 1.000000
vt 0.666667 0.000000
vt 0.333333 0.000000
vt 0.666667 0.666667
vt 0.666667 0.333333
vt 0.333333 1.000000
vt 0.666667 0.000000
vt 0.333333 0.000000
vt 0.666667 0.666667
vt 0.666667 0.333333
vt 0.333333 1.000000
vt 0.666667 0.000000
vt 0.333333 0.000000
vt 0.666667 0.666667
vt 0.666667 0.333333
vt 0.333333 1.000000
vt 0.666667 0.000000
vt 0.333333 0.000000
vt 0.666667 0.666667
vt 0.666667 0.333333
vt 0.333333 1.000000
vt 0.666667 0.000000
vt 0.333333 0.000000
vt 0.666667 0.666667
vt 0.666667 0.333333
vt 0.333333 1.000000
vt 0.666667 0.000000
vt 0.333333 0.000000
vt 0.666667 0.666667
vt 0.666667 0.333333
vt 0.333333 1.000000
vn -1.000000 0.000000 0.000000
vn 0.000000 0.000000 -1.000000
vn 1.000000 0.000000 0.000000
vn 0.000000 0.000000 1.000000
vn 0.000000 -1.000000 0.000000
vn 0.000000 1.000000 0.000000
vn 0.500000 0.000000 -0.866000
vn 0.500000 0.000000 0.866000
vn -0.500000 0.000000 0.866000
vn -0.500000 0.000000 -0.866000
vn -0.830100 0.000000 0.557500
vn -0.557500 0.000000 -0.830100
vn 0.830100 0.000000 -0.557500
vn 0.557500 0.000000 0.830100
vn -0.507300 0.000000 -0.861800
vn 0.861800 0.000000 -0.507300
vn 0.507300 0.000000 0.861800
vn -0.861800 0.000000 0.507300
vn -0.900500 0.000000 0.434900
vn -0.434900 0.000000 -0.900500
vn 0.900500 0.000000 -0.434900
vn 0.434900 0.000000 0.900500
vn -0.846300 0.000000 -0.532700
vn 0.532700 0.000000 -0.846300
vn 0.846300 0.000000 0.532700
vn -0.532700 0.000000 0.846300
vn -0.797200 0.000000 -0.603700
vn 0.603700 0.000000 -0.797200
vn 0.797200 0.000000 0.603700
vn -0.603700 0.000000 0.797200
vn -0.983600 0.000000 0.180100
vn -0.180100 0.000000 -0.983600
vn 0.983600 0.000000 -0.180100
vn 0.180100 0.000000 0.983600
s off
f 4/1/1 1/2/1 2/3/1
f 8/4/2 3/5/2 4/6/2
f 6/7/3 7/8/3 8/4/3
f 2/9/4 5/10/4 6/11/4
f 3/12/5 5/13/5 1/14/5
f 8/15/6 2/16/6 6/17/6
f 12/18/1 9/19/1 10/20/1
f 16/21/2 11/22/2 12/23/2
f 14/24/3 15/25/3 16/21/3
f 10/26/4 13/27/4 14/28/4
f 11/29/5 13/30/5 9/31/5
f 16/32/6 10/33/6 14/34/6
f 20/35/1 17/36/1 18/37/1
f 24/38/2 19/39/2 20/40/2
f 22/41/3 23/42/3 24/38/3
f 18/43/4 21/44/4 22/45/4
f 19/46/5 21/47/5 17/48/5
f 24/49/6 18/50/6 22/51/6
f 28/52/1 25/53/1 26/54/1
f 32/55/2 27/56/2 28/57/2
f 30/58/3 31/59/3 32/55/3
f 26/60/4 29/61/4 30/62/4
f 27/63/5 29/64/5 25/65/5
f 32/66/6 26/67/6 30/68/6
f 34/69/7 35/70/7 33/71/7
f 36/72/3 37/73/3 35/74/3
f 38/75/8 39/76/8 37/73/8
f 40/77/9 41/78/9 39/79/9
f 34/80/6 40/81/6 38/82/6
f 42/83/1 43/84/1 41/78/1
f 44/85/10 33/86/10 43/84/10
f 35/87/5 39/88/5 33/89/5
f 48/90/11 45/91/11 46/92/11
f 52/93/12 47/94/12 48/95/12
f 50/96/13 51/97/13 52/93/13
f 46/98/14 49/99/14 50/100/14
f 47/101/5 49/102/5 45/103/5
f 50/104/6 48/105/6 46/106/6
f 56/107/1 53/108/1 54/109/1
f 60/110/2 55/111/2 56/112/2
f 58/113/3 59/114/3 60/110/3
f 54/115/4 57/116/4 58/117/4
f 55/118/5 57/119/5 53/120/5
f 60/121/6 54/122/6 58/123/6
f 64/124/15 61/125/15 62/126/15
f 68/127/16 63/128/16 64/129/16
f 66/130/17 67/131/17 68/127/17
f 62/132/18 65/133/18 66/134/18
f 63/135/5 65/136/5 61/137/5
f 66/138/6 64/139/6 62/140/6
f 72/141/19 69/142/19 70/143/19
f 76/144/20 71/145/20 72/146/20
f 74/147/21 75/148/21 76/144/21
f 70/149/22 73/150/22 74/151/22
f 69/152/5 75/153/5 73/154/5
f 76/155/6 70/156/6 74/157/6
f 80/158/23 77/159/23 78/160/23
f 84/161/24 79/162/24 80/163/24
f 82/164/25 83/165/25 84/161/25
f 78/166/26 81/167/26 82/168/26
f 77/169/5 83/170/5 81/171/5
f 84/172/6 78/173/6 82/174/6
f 88/175/27 85/176/27 86/177/27
f 92/178/28 87/179/28 88/180/28
f 90/181/29 91/182/29 92/178/29
f 86/183/30 89/184/30 90/185/30
f 87/186/5 89/187/5 85/188/5
f 92/189/6 86/190/6 90/191/6
f 96/192/31 93/193/31 94/194/31
f 100/195/32 95/196/32 96/197/32
f 98/198/33 99/199/33 100/195/33
f 94/200/34 97/201/34 98/202/34
f 95/203/5 97/204/5 93/205/5
f 100/206/6 94/207/6 98/208/6
f 104/209/1 101/210/1 102/211/1
f 108/212/2 103/213/2 104/214/2
f 106/215/3 107/216/3 108/212/3
f 102/217/4 105/218/4 106/219/4
f 103/220/5 105/221/5 101/222/5
f 108/223/6 102/224/6 106/225/6
f 112/226/1 109/227/1 110/228/1
f 116/229/2 111/230/2 112/231/2
f 114/232/3 115/233/3 116/229/3
f 110/234/4 113/235/4 114/236/4
f 111/237/5 113/238/5 109/239/5
f 116/240/6 110/241/6 114/242/6
f 120/243/1 117/244/1 118/245/1
f 124/246/2 119/247/2 120/248/2
f 122/249/3 123/250/3 124/246/3
f 118/251/4 121/252/4 122/253/4
f 119/254/5 121/255/5 117/256/5
f 124/257/6 118/258/6 122/259/6
f 128/260/1 125/261/1 126/262/1
f 132/263/2 127/264/2 128/265/2
f 130/266/3 131/267/3 132/263/3
f 126/268/4 129/269/4 130/270/4
f 127/271/5 129/272/5 125/273/5
f 132/274/6 126/275/6 130/276/6
f 136/277/1 133/278/1 134/279/1
f 140/280/2 135/281/2 136/282/2
f 138/283/3 139/284/3 140/280/3
f 134/285/4 137/286/4 138/287/4
f 135/288/5 137/289/5 133/290/5
f 140/291/6 134/292/6 138/293/6
f 144/294/1 141/295/1 142/296/1
f 148/297/2 143/298/2 144/299/2
f 146/300/3 147/301/3 148/297/3
f 142/302/4 145/303/4 146/304/4
f 143/305/5 145/306/5 141/307/5
f 148/308/6 142/309/6 146/310/6
f 4/1/1 3/311/1 1/2/1
f 8/4/2 7/8/2 3/5/2
f 6/7/3 5/312/3 7/8/3
f 2/9/4 1/313/4 5/10/4
f 3/12/5 7/314/5 5/13/5
f 8/15/6 4/315/6 2/16/6
f 12/18/1 11/316/1 9/19/1
f 16/21/2 15/25/2 11/22/2
f 14/24/3 13/317/3 15/25/3
f 10/26/4 9/318/4 13/27/4
f 11/29/5 15/319/5 13/30/5
f 16/32/6 12/320/6 10/33/6
f 20/35/1 19/321/1 17/36/1
f 24/38/2 23/42/2 19/39/2
f 22/41/3 21/322/3 23/42/3
f 18/43/4 17/323/4 21/44/4
f 19/46/5 23/324/5 21/47/5
f 24/49/6 20/325/6 18/50/6
f 28/52/1 27/326/1 25/53/1
f 32/55/2 31/59/2 27/56/2
f 30/58/3 29/327/3 31/59/3
f 26/60/4 25/328/4 29/61/4
f 27/63/5 31/329/5 29/64/5
f 32/66/6 28/330/6 26/67/6
f 34/69/7 36/331/7 35/70/7
f 36/72/3 38/75/3 37/73/3
f 38/75/8 40/332/8 39/76/8
f 40/77/9 42/83/9 41/78/9
f 38/82/6 36/333/6 34/80/6
f 34/80/6 44/334/6 42/335/6
f 42/335/6 40/81/6 34/80/6
f 42/83/1 44/85/1 43/84/1
f 44/85/10 34/336/10 33/86/10
f 43/337/5 33/89/5 39/88/5
f 35/87/5 37/338/5 39/88/5
f 39/88/5 41/339/5 43/337/5
f 48/90/11 47/340/11 45/91/11
f 52/93/12 51/97/12 47/94/12
f 50/96/13 49/341/13 51/97/13
f 46/98/14 45/342/14 49/99/14
f 47/101/5 51/343/5 49/102/5
f 50/104/6 52/344/6 48/105/6
f 56/107/1 55/345/1 53/108/1
f 60/110/2 59/114/2 55/111/2
f 58/113/3 57/346/3 59/114/3
f 54/115/4 53/347/4 57/116/4
f 55/118/5 59/348/5 57/119/5
f 60/121/6 56/349/6 54/122/6
f 64/124/15 63/350/15 61/125/15
f 68/127/16 67/131/16 63/128/16
f 66/130/17 65/351/17 67/131/17
f 62/132/18 61/352/18 65/133/18
f 63/135/5 67/353/5 65/136/5
f 66/138/6 68/354/6 64/139/6
f 72/141/19 71/355/19 69/142/19
f 76/144/20 75/148/20 71/145/20
f 74/147/21 73/356/21 75/148/21
f 70/149/22 69/357/22 73/150/22
f 69/152/5 71/358/5 75/153/5
f 76/155/6 72/359/6 70/156/6
f 80/158/23 79/360/23 77/159/23
f 84/161/24 83/165/24 79/162/24
f 82/164/25 81/361/25 83/165/25
f 78/166/26 77/362/26 81/167/26
f 77/169/5 79/363/5 83/170/5
f 84/172/6 80/364/6 78/173/6
f 88/175/27 87/365/27 85/176/27
f 92/178/28 91/182/28 87/179/28
f 90/181/29 89/366/29 91/182/29
f 86/183/30 85/367/30 89/184/30
f 87/186/5 91/368/5 89/187/5
f 92/189/6 88/369/6 86/190/6
f 96/192/31 95/370/31 93/193/31
f 100/195/32 99/199/32 95/196/32
f 98/198/33 97/371/33 99/199/33
f 94/200/34 93/372/34 97/201/34
f 95/203/5 99/373/5 97/204/5
f 100/206/6 96/374/6 94/207/6
f 104/209/1 103/375/1 101/210/1
f 108/212/2 107/216/2 103/213/2
f 106/215/3 105/376/3 107/216/3
f 102/217/4 101/377/4 105/218/4
f 103/220/5 107/378/5 105/221/5
f 108/223/6 104/379/6 102/224/6
f 112/226/1 111/380/1 109/227/1
f 116/229/2 115/233/2 111/230/2
f 114/232/3 113/381/3 115/233/3
f 110/234/4 109/382/4 113/235/4
f 111/237/5 115/383/5 113/238/5
f 116/240/6 112/384/6 110/241/6
f 120/243/1 119/385/1 117/244/1
f 124/246/2 123/250/2 119/247/2
f 122/249/3 121/386/3 123/250/3
f 118/251/4 117/387/4 121/252/4
f 119/254/5 123/388/5 121/255/5
f 124/257/6 120/389/6 118/258/6
f 128/260/1 127/390/1 125/261/1
f 132/263/2 131/267/2 127/264/2
f 130/266/3 129/391/3 131/267/3
f 126/268/4 125/392/4 129/269/4
f 127/271/5 131/393/5 129/272/5
f 132/274/6 128/394/6 126/275/6
f 136/277/1 135/395/1 133/278/1
f 140/280/2 139/284/2 135/281/2
f 138/283/3 137/396/3 139/284/3
f 134/285/4 133/397/4 137/286/4
f 135/288/5 139/398/5 137/289/5
f 140/291/6 136/399/6 134/292/6
f 144/294/1 143/400/1 141/295/1
f 148/297/2 147/301/2 143/298/2
f 146/300/3 145/401/3 147/301/3
f 142/302/4 141/402/4 145/303/4
f 143/305/5 147/403/5 145/306/5
f 148/308/6 144/404/6 142/309/6
