# Blender v2.77 (sub 0) OBJ File: 'Tiger_I.blend'
# www.blender.org
o Cube_Cube.002
v -0.125000 0.000000 0.125000
v -0.125000 8.000000 0.125000
v -0.125000 0.000000 -0.125000
v -0.125000 8.000000 -0.125000
v 0.125000 0.000000 0.125000
v 0.125000 8.000000 0.125000
v 0.125000 0.000000 -0.125000
v 0.125000 8.000000 -0.125000
vt 0.333333 0.000000
vt 0.666667 0.333333
vt 0.333333 0.333333
vt 0.000000 0.333333
vt 0.333333 0.666667
vt 0.000000 0.666667
vt 0.000000 0.000000
vt 0.333333 0.333333
vt 0.666667 0.333333
vt 0.333333 0.666667
vt 0.333333 0.333333
vt 1.000000 0.333333
vt 0.666667 0.000000
vt 1.000000 0.000000
vt 0.333333 0.666667
vt 0.000000 1.000000
vt 0.000000 0.666667
vt 0.666667 0.000000
vt 0.333333 0.000000
vt 0.666667 0.666667
vt 0.666667 0.333333
vt 0.333333 1.000000
vn -1.000000 0.000000 0.000000
vn 0.000000 0.000000 -1.000000
vn 1.000000 0.000000 0.000000
vn 0.000000 0.000000 1.000000
vn 0.000000 -1.000000 0.000000
vn 0.000000 1.000000 0.000000
s off
f 4/1/1 1/2/1 2/3/1
f 8/4/2 3/5/2 4/6/2
f 6/7/3 7/8/3 8/4/3
f 2/9/4 5/10/4 6/11/4
f 3/12/5 5/13/5 1/14/5
f 8/15/6 2/16/6 6/17/6
f 4/1/1 3/18/1 1/2/1
f 8/4/2 7/8/2 3/5/2
f 6/7/3 5/19/3 7/8/3
f 2/9/4 1/20/4 5/10/4
f 3/12/5 7/21/5 5/13/5
f 8/15/6 4/22/6 2/16/6
