# Blender v2.77 (sub 0) OBJ File: ''
# www.blender.org
mtllib poste.mtl
o Cube_Cube.002
v -0.013012 0.832766 -0.013012
v -0.013012 -0.000000 0.013012
v -0.013012 0.832766 0.013012
v 0.013012 0.832766 -0.013012
v -0.013012 0.000000 -0.013012
v 0.013012 0.832766 0.013012
v 0.013012 0.000000 -0.013012
v 0.013012 -0.000000 0.013012
vt 0.3333 0.0000
vt 0.6667 0.3333
vt 0.3333 0.3333
vt 0.0000 0.3333
vt 0.3333 0.6667
vt 0.0000 0.6667
vt 0.0000 0.0000
vt 0.3333 0.3333
vt 0.6667 0.3333
vt 0.3333 0.6667
vt 0.3333 0.3333
vt 1.0000 0.3333
vt 0.6667 0.0000
vt 1.0000 0.0000
vt 0.3333 0.6667
vt 0.0000 1.0000
vt 0.0000 0.6667
vt 0.6667 0.0000
vt 0.3333 0.0000
vt 0.6667 0.6667
vt 0.6667 0.3333
vt 0.3333 1.0000
vn -1.0000 -0.0000 0.0000
vn 0.0000 0.0000 -1.0000
vn 1.0000 -0.0000 0.0000
vn 0.0000 -0.0000 1.0000
vn 0.0000 -1.0000 -0.0000
vn 0.0000 1.0000 0.0000
usemtl None
s 1
f 1/1/1 2/2/1 3/3/1
f 4/4/2 5/5/2 1/6/2
f 6/7/3 7/8/3 4/4/3
f 3/9/4 8/10/4 6/11/4
f 5/12/5 8/13/5 2/14/5
f 4/15/6 3/16/6 6/17/6
f 1/1/1 5/18/1 2/2/1
f 4/4/2 7/8/2 5/5/2
f 6/7/3 8/19/3 7/8/3
f 3/9/4 2/20/4 8/10/4
f 5/12/5 7/21/5 8/13/5
f 4/15/6 1/22/6 3/16/6
